<svg width="26" height="27" viewBox="0 0 26 27" fill="none" xmlns="http://www.w3.org/2000/svg">
<path fill-rule="evenodd" clip-rule="evenodd" d="M6.32105 19.9014C5.98258 19.5629 5.98258 19.0141 6.32105 18.6758L17.8416 7.15518H10.4005C9.92189 7.15518 9.53387 6.76715 9.53387 6.28851C9.53387 5.80987 9.92189 5.42184 10.4005 5.42184H19.9339C20.1637 5.42184 20.3842 5.51316 20.5468 5.67569C20.7092 5.83823 20.8005 6.05865 20.8005 6.28851V15.8219C20.8005 16.3005 20.4124 16.6885 19.9339 16.6885C19.4553 16.6885 19.0672 16.3005 19.0672 15.8219V8.38084L7.54669 19.9014C7.20824 20.2398 6.6595 20.2398 6.32105 19.9014Z" fill="black"/>
</svg>
